HIERARCHY
ROOT Hips
{
	OFFSET -0.001795 -0.223333 0.028219
	CHANNELS 6 Xposition Yposition Zposition Zrotation Yrotation Xrotation 
	JOINT LeftUpLeg
	{
		OFFSET 0.069520 -0.091406 -0.006815
		CHANNELS 3 Zrotation Yrotation Xrotation
		JOINT LeftLeg
		{
			OFFSET 0.034277 -0.375199 -0.004496
			CHANNELS 3 Zrotation Yrotation Xrotation
			JOINT LeftFoot
			{
				OFFSET -0.013596 -0.397961 -0.043693
				CHANNELS 3 Zrotation Yrotation Xrotation
				JOINT LeftToe
				{
					OFFSET 0.026358 -0.055791 0.119288
					CHANNELS 3 Zrotation Yrotation Xrotation
					End Site
					{
						OFFSET 0.000000 0.000000 0.000000
					}
				}
			}
		}
	}
	JOINT RightUpLeg
	{
		OFFSET -0.067670 -0.090522 -0.004320
		CHANNELS 3 Zrotation Yrotation Xrotation
		JOINT RightLeg
		{
			OFFSET -0.038290 -0.382569 -0.008850
			CHANNELS 3 Zrotation Yrotation Xrotation
			JOINT RightFoot
			{
				OFFSET 0.015774 -0.398415 -0.042312
				CHANNELS 3 Zrotation Yrotation Xrotation
				JOINT RightToe
				{
					OFFSET -0.025372 -0.048144 0.123348
					CHANNELS 3 Zrotation Yrotation Xrotation
					End Site
					{
						OFFSET 0.000000 0.000000 0.000000
					}
				}
			}
		}
	}
	JOINT Spine
	{
		OFFSET -0.002533 0.108963 -0.026696
		CHANNELS 3 Zrotation Yrotation Xrotation
		JOINT Spine1
		{
			OFFSET 0.005487 0.135180 0.001092
			CHANNELS 3 Zrotation Yrotation Xrotation
			JOINT Spine2
			{
				OFFSET 0.001457 0.052922 0.025425
				CHANNELS 3 Zrotation Yrotation Xrotation
				JOINT Neck
				{
					OFFSET -0.002778 0.213870 -0.042857
					CHANNELS 3 Zrotation Yrotation Xrotation
					JOINT Head
					{
						OFFSET 0.005152 0.064970 0.051349
						CHANNELS 3 Zrotation Yrotation Xrotation
						End Site
						{
							OFFSET 0.000000 0.000000 0.000000
						}
					}
				}
				JOINT LeftShoulder
				{
					OFFSET 0.078845 0.121749 -0.034090
					CHANNELS 3 Zrotation Yrotation Xrotation
					JOINT LeftArm
					{
						OFFSET 0.090977 0.030469 -0.008868
						CHANNELS 3 Zrotation Yrotation Xrotation
						JOINT LeftForeArm
						{
							OFFSET 0.259612 -0.012772 -0.027456
							CHANNELS 3 Zrotation Yrotation Xrotation
							JOINT LeftHand
							{
								OFFSET 0.249234 0.008986 -0.001171
								CHANNELS 3 Zrotation Yrotation Xrotation
								End Site
								{
									OFFSET 0.000000 0.000000 0.000000
								}
							}
						}
					}
				}
				JOINT RightShoulder
				{
					OFFSET -0.081759 0.118833 -0.038615
					CHANNELS 3 Zrotation Yrotation Xrotation
					JOINT RightArm
					{
						OFFSET -0.096012 0.032551 -0.009143
						CHANNELS 3 Zrotation Yrotation Xrotation
						JOINT RightForeArm
						{
							OFFSET -0.253742 -0.013329 -0.021401
							CHANNELS 3 Zrotation Yrotation Xrotation
							JOINT RightHand
							{
								OFFSET -0.255298 0.007772 -0.005559
								CHANNELS 3 Zrotation Yrotation Xrotation
								End Site
								{
									OFFSET 0.000000 0.000000 0.000000
								}
							}
						}
					}
				}
			}
		}
	}
}
MOTION
Frames: 6
Frame Time: 0.050000
0.000000 0.943796 0.000000 -0.248357 1.109015 1.183113 -2.404174 0.749753 6.394236 -1.355980 0.275911 -6.019414 4.838486 12.091419 9.572097 0.000000 0.000000 0.000000 -0.860313 -0.091770 1.200500 -0.402854 0.043817 0.008028 -1.586245 -6.895935 8.414392 0.000000 0.000000 0.000000 6.671439 -0.303901 2.217152 -2.254410 1.143398 -11.809406 -3.552938 3.843580 16.423679 9.629951 -3.926038 -20.144631 0.000000 0.000000 0.000000 -9.810627 -11.476875 3.694386 -17.721497 -2.998720 -1.965520 15.238962 -8.242155 -0.870265 0.000000 0.000000 0.000000 14.763814 0.465805 0.137955 19.020208 3.713632 -2.162124 -12.830586 13.792217 -0.725257 0.000000 0.000000 0.000000 
0.000244 0.941909 0.001990 -0.305434 0.838459 1.324916 -2.340235 0.818876 7.039007 -1.465340 0.306138 -7.155161 4.953114 12.216915 9.301052 0.000000 0.000000 0.000000 -0.899983 -0.067460 0.965378 -0.294712 0.046679 0.359614 -1.605065 -6.741096 7.667641 0.000000 0.000000 0.000000 7.295910 -0.340308 2.339782 -2.637300 1.271714 -11.344721 -3.878689 5.633647 16.245979 10.709861 -3.925389 -22.362916 0.000000 0.000000 0.000000 -8.249599 -11.346732 3.441853 -17.259071 -3.211479 -1.823143 14.203569 -7.019737 -0.720734 0.000000 0.000000 0.000000 14.873795 -2.276114 -0.967656 19.203926 2.957249 -2.346862 -11.143118 13.677874 -0.513122 0.000000 0.000000 0.000000 
0.000371 0.940354 0.003858 -0.483675 0.543482 1.558696 -2.044623 0.790989 6.966266 -1.758246 0.321894 -7.213972 5.178529 12.492943 8.815768 0.000000 0.000000 0.000000 -0.970290 -0.020203 0.491592 0.116101 0.023172 0.927491 -1.587232 -6.545056 7.058736 0.000000 0.000000 0.000000 7.919609 -0.347009 2.163751 -3.151398 1.445223 -11.869115 -3.754503 6.166565 17.483945 10.725011 -3.971045 -22.133158 0.000000 0.000000 0.000000 -7.539454 -10.604500 3.152372 -17.155611 -1.926646 -1.965366 13.229133 -7.608496 -0.714495 0.000000 0.000000 0.000000 15.554344 -2.611876 -1.071527 17.842988 2.472365 -2.303443 -8.444450 12.638118 -0.247036 0.000000 0.000000 0.000000 
0.000411 0.939451 0.005912 -0.527507 0.271360 1.037566 -2.623170 0.932600 7.824554 -0.699032 0.282517 -7.455162 5.389267 12.802276 8.613990 0.000000 0.000000 0.000000 -0.922642 -0.080560 1.122236 0.043402 0.035669 1.030025 -1.519103 -6.291500 6.640909 0.000000 0.000000 0.000000 8.115675 -0.347638 2.249050 -3.258775 1.480048 -11.883135 -3.674610 6.531549 18.695622 10.382630 -3.355777 -24.351852 0.000000 0.000000 0.000000 -7.245930 -10.387430 3.078638 -18.629916 -0.981899 -2.282589 14.103894 -7.514511 -0.777253 0.000000 0.000000 0.000000 15.752255 -2.895307 -1.153245 18.283478 1.508631 -2.505015 -7.299436 12.945724 -0.161057 0.000000 0.000000 0.000000 
0.000313 0.938860 0.007693 -0.509024 0.232033 0.862296 -2.581419 0.983308 8.306133 -0.794352 0.294526 -7.743195 5.390763 12.788034 8.516310 0.000000 0.000000 0.000000 -0.774242 -0.085519 1.117409 -0.252622 0.093827 1.603626 -1.593015 -6.334212 6.266844 0.000000 0.000000 0.000000 7.796861 -0.349053 2.399239 -2.619325 1.252458 -11.669491 -4.111494 6.771027 18.508256 11.262117 -3.999194 -23.491745 0.000000 0.000000 0.000000 -8.231281 -9.941643 2.801277 -19.376256 -0.632042 -2.387500 12.071242 -9.464231 -0.780486 0.000000 0.000000 0.000000 17.207374 -3.492702 -1.446387 18.475966 1.243412 -2.581215 -5.426366 13.655631 -0.007438 0.000000 0.000000 0.000000 
0.000140 0.938344 0.009087 -0.448518 0.252468 0.846789 -3.181857 1.023044 8.198066 0.182059 0.241422 -7.369434 5.507614 12.950255 8.288537 0.000000 0.000000 0.000000 -1.061326 -0.051340 0.850259 0.174430 0.068679 2.297621 -1.662024 -6.378892 5.943992 0.000000 0.000000 0.000000 7.706446 -0.373238 2.651947 -2.451430 1.191695 -10.850070 -4.254778 6.046851 18.207192 10.653145 -3.630711 -23.968780 0.000000 0.000000 0.000000 -9.626021 -9.102545 2.452295 -22.247031 -0.510728 -2.799606 10.563294 -11.656386 -0.764733 0.000000 0.000000 0.000000 18.458924 -3.519138 -1.640485 20.835263 1.480220 -2.830271 -4.196962 14.644241 0.111451 0.000000 0.000000 0.000000 
